<?xml version="1.0" encoding="utf-8"?>
<!-- Generator: Adobe Illustrator 15.0.0, SVG Export Plug-In . SVG Version: 6.00 Build 0)  -->
<!DOCTYPE svg PUBLIC "-//W3C//DTD SVG 1.1//EN" "http://www.w3.org/Graphics/SVG/1.1/DTD/svg11.dtd">
<svg version="1.1" id="图层_1" xmlns="http://www.w3.org/2000/svg" xmlns:xlink="http://www.w3.org/1999/xlink" x="0px" y="0px"
	 width="15px" height="15px" viewBox="0 0 15 15" enable-background="new 0 0 15 15" xml:space="preserve">
<path fill="#1B96D4" d="M13.75,1.406h-2.031V0.469C11.719,0.209,11.509,0,11.25,0c-0.259,0-0.469,0.209-0.469,0.469v0.938H7.968
	V0.469C7.968,0.209,7.759,0,7.5,0S7.031,0.209,7.031,0.469v0.938H4.218V0.469C4.218,0.209,4.009,0,3.75,0
	C3.491,0,3.281,0.209,3.281,0.469v0.938H1.25C0.56,1.406,0,1.966,0,2.656V13.75C0,14.44,0.56,15,1.25,15h12.5
	c0.69,0,1.25-0.56,1.25-1.25V2.656C15,1.966,14.44,1.406,13.75,1.406 M14.063,13.75c0,0.172-0.14,0.313-0.313,0.313H1.25
	c-0.172,0-0.313-0.14-0.313-0.313V2.656c0-0.172,0.141-0.312,0.313-0.312h2.031v0.937c0,0.259,0.21,0.469,0.469,0.469
	c0.259,0,0.469-0.21,0.469-0.469V2.344h2.813v0.937c0,0.259,0.21,0.469,0.469,0.469s0.468-0.21,0.468-0.469V2.344h2.813v0.937
	c0,0.259,0.21,0.469,0.469,0.469c0.259,0,0.469-0.21,0.469-0.469V2.344h2.031c0.172,0,0.313,0.14,0.313,0.312V13.75z"/>
<path fill="#1B96D4" d="M3.281,7.031h1.875V5.625H3.281V7.031z"/>
<path fill="#1B96D4" d="M3.281,9.375h1.875V7.969H3.281V9.375z"/>
<path fill="#1B96D4" d="M3.281,11.719h1.875v-1.406H3.281V11.719z"/>
<path fill="#1B96D4" d="M6.563,11.719h1.875v-1.406H6.563V11.719z"/>
<path fill="#1B96D4" d="M6.563,9.375h1.875V7.969H6.563V9.375z"/>
<path fill="#1B96D4" d="M6.563,7.031h1.875V5.625H6.563V7.031z"/>
<path fill="#1B96D4" d="M9.844,11.719h1.875v-1.406H9.844V11.719z"/>
<path fill="#1B96D4" d="M9.844,9.375h1.875V7.969H9.844V9.375z"/>
<path fill="#1B96D4" d="M9.844,7.031h1.875V5.625H9.844V7.031z"/>
</svg>
